<svg xmlns="http://www.w3.org/2000/svg" width="119.936" height="118.949" viewBox="0 0 119.936 118.949">
  <g id="Group_1687" data-name="Group 1687" transform="translate(-490.067 -213.182)">
    <g id="Group_1685" data-name="Group 1685" transform="translate(490.067 213.182)">
      <path id="Path_5085" data-name="Path 5085" d="M607.136,274.753a2.487,2.487,0,0,1-2.076-2.074c-4.387-28.1-21.824-48-46.646-53.254-24.642-5.213-49.674,5.574-63.771,27.479a2.486,2.486,0,1,1-4.181-2.691,67.332,67.332,0,0,1,31.177-26.2,65.116,65.116,0,0,1,18.766-4.572,64.07,64.07,0,0,1,19.038,1.116,61.618,61.618,0,0,1,32.4,18.243,66.287,66.287,0,0,1,11.476,17,80.771,80.771,0,0,1,6.65,22.108,2.488,2.488,0,0,1-2.836,2.841Z" transform="translate(-490.067 -213.182)" fill="#ed715d"/>
      <path id="Path_5086" data-name="Path 5086" d="M620.725,349.075a2.487,2.487,0,0,1-2.095-2.237c-3.014-33.891-24.513-50.4-43.628-54.553-24.113-5.237-48.2,6.367-61.372,29.562a2.486,2.486,0,0,1-4.324-2.455c7.264-12.794,17.655-22.5,30.049-28.064a59.417,59.417,0,0,1,18.237-4.916,57.062,57.062,0,0,1,50.1,19.915,63.44,63.44,0,0,1,10.595,17.514,78.246,78.246,0,0,1,5.3,22.556,2.488,2.488,0,0,1-2.858,2.677Z" transform="translate(-507.731 -281.279)" fill="#fdb88e"/>
      <path id="Path_5087" data-name="Path 5087" d="M647.9,415.239a2.487,2.487,0,0,1-2.1-2.316c-1.639-28.748-17.683-50.665-40.872-55.837-22.656-5.052-44.842,6.809-57.9,30.955a2.486,2.486,0,1,1-4.373-2.365,75.628,75.628,0,0,1,13.083-17.739A60.323,60.323,0,0,1,571.5,356.554a53.254,53.254,0,0,1,17.195-5.169,51.048,51.048,0,0,1,17.308.849,51.766,51.766,0,0,1,16.521,6.863,55.479,55.479,0,0,1,13.866,12.609,64.134,64.134,0,0,1,9.846,17.981,81.4,81.4,0,0,1,4.522,22.954,2.489,2.489,0,0,1-2.864,2.6Z" transform="translate(-538.893 -341.901)" fill="#95cad8"/>
      <path id="Path_5088" data-name="Path 5088" d="M725.075,477.827a2.487,2.487,0,0,1-2.1-2.3c-1.444-23.02-15.88-41.745-35.923-46.6-19.74-4.778-39.024,4.949-51.584,26.019A2.486,2.486,0,1,1,631.2,452.4a71.063,71.063,0,0,1,12.409-15.634,53.881,53.881,0,0,1,14.311-9.7,46.125,46.125,0,0,1,30.3-2.976,48.361,48.361,0,0,1,14.746,6.332,51.744,51.744,0,0,1,12.287,11.039,59.021,59.021,0,0,1,12.682,33.746,2.488,2.488,0,0,1-2.863,2.613Z" transform="translate(-621.544 -408.937)" fill="#016099"/>
      <path id="Path_5089" data-name="Path 5089" d="M819.993,534.246a2.487,2.487,0,0,1-2.078-2.087c-2.893-19.195-15.256-34.151-31.5-38.1-15.766-3.836-31.653,3.41-43.587,19.881a2.486,2.486,0,1,1-4.026-2.917A65.716,65.716,0,0,1,750.1,498.825a49.132,49.132,0,0,1,12.322-7.517,40.305,40.305,0,0,1,25.174-2.083,41.838,41.838,0,0,1,12.453,5.314,46.417,46.417,0,0,1,10.519,9.164,55.183,55.183,0,0,1,12.267,27.715,2.488,2.488,0,0,1-2.839,2.828Z" transform="translate(-721.925 -469.932)" fill="#01307d"/>
    </g>
    <g id="Group_1686" data-name="Group 1686" transform="translate(513.166 258.38)">
      <path id="Path_5090" data-name="Path 5090" d="M1267.655,921.164c2.823,2.734,25.508,1,19.311-8.013-2.072-3.012,3.252-3.409-3.179-9.013-2.316-2.019-.99-8.163-8.407-6.793-2.716.5-8.142-2.741-7.259,5.941C1268.473,906.75,1267.655,921.164,1267.655,921.164Z" transform="translate(-1239.369 -897.147)" fill="#012869"/>
      <path id="Path_5091" data-name="Path 5091" d="M1898.91,1741.717c.351.171,1.518,4.707,1.518,4.707a6.13,6.13,0,0,0,.761,1.554c1.4.927,4.492,2.82,4.98,3.111a10.58,10.58,0,0,1,1.662,1.285s1.158,2.545-3.263,2.056a41.6,41.6,0,0,1-6.9-1.355c-1.3-.468-.553-2.018-.607-3.223-.024-.535-1.852-5.193-1.976-5.508C1895.08,1744.343,1895.292,1739.955,1898.91,1741.717Z" transform="translate(-1825.332 -1685.516)" fill="#fdb98d"/>
      <path id="Path_5092" data-name="Path 5092" d="M1923.269,1871.986c2.789,1.447,4.7,2.489,4.179,4.1-.589,1.807-4.307,1.488-6.311.618a25.276,25.276,0,0,0-3.005-1.248c-1.291-.373-2.987-.712-3.866-1.008-1.22-.411-.905-2.119-.018-3.644a1.705,1.705,0,0,0,.977,1.163,38.218,38.218,0,0,0,6.523,2.341c1.054.25,1.938.056,2.229-.595A1.58,1.58,0,0,0,1923.269,1871.986Z" transform="translate(-1842.5 -1806.457)" fill="#002869"/>
      <path id="Path_5093" data-name="Path 5093" d="M1690.02,1789.926c-.268-1.533-.587-3.226-.657-3.4,0,0,.213-4.388,3.83-2.626.3.146,1.519,4.091,1.519,4.091-.189.921-.244,2.028-.024,2.21.934.771,6.807,3.767,6.866,3.8l-.117.23c1.177,1.041,2.592,2.958-2.585,2.384a41.557,41.557,0,0,1-6.905-1.355,2.335,2.335,0,0,1-1.492-2.245l-.167.012Z" transform="translate(-1633.209 -1724.907)" fill="#fdb98d"/>
      <path id="Path_5094" data-name="Path 5094" d="M1706.059,1920.588c2.894,1.119,4.552,2.062,4.028,3.669-.589,1.807-4.939,1.728-6.943.858a29.883,29.883,0,0,0-3.186-1.166c-1.29-.373-3.067-.681-3.946-.978-1.22-.41-.972-2.021-.375-3.449.129.5.94.891,1.493,1.155,2.322,1.111,5.169,2.289,6.523,2.341s2.562.011,2.823-.654A1.447,1.447,0,0,0,1706.059,1920.588Z" transform="translate(-1638.607 -1851.96)" fill="#002869"/>
      <path id="Path_5095" data-name="Path 5095" d="M1188.946,1181.2c3.279,15.44-7.981,24.469-19.228,25.682a20.933,20.933,0,0,1-17.447-6.09c-3.056-.113-1.078-6.61-1.219-10.515-.46-12.682,2.281-25.1,16.427-25.261C1175.963,1164.921,1186.764,1170.927,1188.946,1181.2Z" transform="translate(-1130.004 -1147.314)" fill="#ed715d"/>
      <path id="Path_5096" data-name="Path 5096" d="M1956.484,1191.711c1.036-1.6,3.455-1.411,5.317-2.062,1.435-.5,4.579-2.324,4.331-3.175s-3.784,1.758-6.205,1.3c.412-.732,2.484-1.775,2.106-2.689-.134-.323-1.088.372-2.176.764a16.529,16.529,0,0,0-3.117,1.006,10.093,10.093,0,0,0-2.99,2.758Z" transform="translate(-1880.126 -1165.983)" fill="#fdb88e"/>
      <path id="Path_5097" data-name="Path 5097" d="M848.245,1762.934c.34,2.377-2.548,2.245-4.387,2.957-1.418.55-4.5,2.477-4.222,3.319s3.723-1.884,6.158-1.51c-.388.745-2.423,1.858-2.015,2.758.144.319,1.074-.408,2.149-.837a13.07,13.07,0,0,0,3.081-1.109c1.785-1.2,1.613-3.031,3.311-4.163Z" transform="translate(-839.618 -1705.72)" fill="#fdb88e"/>
      <path id="Path_5098" data-name="Path 5098" d="M1362.736,1185.471c.682-7.562,14.49,1.624,29.357-13.363.627-.885-1.61-3.387-2.43-3.431-6.292,1.727-10.834-1.727-15.076-.716-8.7,2.075-13.707-5.286-25.865-3.17Z" transform="translate(-1315.079 -1146.745)" fill="#ed715d"/>
      <path id="Path_5099" data-name="Path 5099" d="M1360.1,1378.1s13.3,3.294,19.4-16.044c2.459-7.8,7.286-1.537,6.216,12.287-.473,6.11-3.282,12.5-5.062,15.658C1376.464,1397.443,1360.713,1399.981,1360.1,1378.1Z" transform="translate(-1325.706 -1328.165)" fill="#012869"/>
      <path id="Path_5100" data-name="Path 5100" d="M1672.049,1375.338s-25.987-29.074-13.252-33.771c10.645-3.927,18.9,31.752,18.9,31.752C1677.838,1374.421,1672.393,1375.872,1672.049,1375.338Z" transform="translate(-1601.382 -1311.916)" fill="#012869"/>
      <path id="Path_5101" data-name="Path 5101" d="M1175.6,1330.667c8.73.554,13.5-21,24.45-26.488.139-.07,2.517-2.005,2.53,15.041,0,1.558-.069,16.58-6.316,23.717C1190.3,1349.748,1174.353,1348.236,1175.6,1330.667Z" transform="translate(-1153.331 -1277.189)" fill="#016099"/>
      <path id="Path_5102" data-name="Path 5102" d="M1498.157,1338.78s-23.974-36.586-8.16-39.4c11.366-2.024,14.045,37.494,14.045,37.494C1504.3,1338.406,1498.889,1339.381,1498.157,1338.78Z" transform="translate(-1441.978 -1272.728)" fill="#016099"/>
      <path id="Path_5103" data-name="Path 5103" d="M1498.573,1435.163a.185.185,0,0,1-.16-.1,54.179,54.179,0,0,1-5.164-18.516.184.184,0,1,1,.368-.03,53.8,53.8,0,0,0,5.128,18.384.184.184,0,0,1-.171.265Z" transform="translate(-1450.054 -1382.034)" fill="#002869"/>
      <path id="Path_5104" data-name="Path 5104" d="M1280.807,1116.792l-.6,5.627c-.006,1.637,8.247,1.723,8.32-.057l-.228-2.527Z" transform="translate(-1251.09 -1102.277)" fill="#fdb88e"/>
      <path id="Path_5105" data-name="Path 5105" d="M981.438,1228.909c-1.927,5.717-3.965,8.958-6.509,14.772-2.773,6.339-7.641,8.49-11.093,12.848-1.075.906-4.924-1.981-4.471-2.6,3.049-4.742,1.924-10.923,5.183-16.257,4.247-6.953-.2-11.024,9.363-20.306Z" transform="translate(-951.417 -1196.202)" fill="#ed715d"/>
      <path id="Path_5106" data-name="Path 5106" d="M1287.668,984.654c1.46,4.924,5.482,5.125,8.1,3.9,1.814-.849,2.008-3.492,2-4.748,0,0,0-.011,0-.015a5,5,0,0,0-.51-2.339c-.076-.163-.157-.327-.237-.5-.127-.276-.231-.581-.355-.927a3.441,3.441,0,0,0-1.129-1.755c-1.726-1.371-2.973.357-5.532-1.948C1288.352,974.841,1286.714,981.437,1287.668,984.654Z" transform="translate(-1257.796 -970.893)" fill="#fdb88e"/>
      <path id="Path_5107" data-name="Path 5107" d="M1324.206,1092.782a1.206,1.206,0,0,1-1.045,1.829,1.107,1.107,0,0,1-.808-.33,1.206,1.206,0,0,1,.573-2.047A1.183,1.183,0,0,1,1324.206,1092.782Z" transform="translate(-1290.106 -1079.314)" fill="#ed715d"/>
      <path id="Path_5108" data-name="Path 5108" d="M1423.621,1058.591a1.2,1.2,0,0,0,1.288.721,5,5,0,0,0-.51-2.339,1.288,1.288,0,0,0-.137.047A1.2,1.2,0,0,0,1423.621,1058.591Z" transform="translate(-1384.941 -1046.412)" fill="#ed715d"/>
      <path id="Path_5109" data-name="Path 5109" d="M1331.659,1160.779a.118.118,0,0,0-.069-.226c-.031.009-3.131.929-5.153-.487a.118.118,0,0,0-.135.194C1328.419,1161.742,1331.527,1160.819,1331.659,1160.779Z" transform="translate(-1294.093 -1142.671)" fill="#ed715d"/>
      <path id="Path_5110" data-name="Path 5110" d="M1397.047,1041.168a1.607,1.607,0,0,0,1.154-.937.133.133,0,0,0-.254-.081c-.012.035-.279.788-1.594.861a.133.133,0,1,0,.015.266A3.08,3.08,0,0,0,1397.047,1041.168Z" transform="translate(-1359.444 -1030.614)" fill="#002869"/>
      <path id="Path_5111" data-name="Path 5111" d="M1330.439,1068.237a2.14,2.14,0,0,0,.9-.6.133.133,0,0,0-.206-.169h0a1.915,1.915,0,0,1-2,.528.133.133,0,0,0-.074.256A2.237,2.237,0,0,0,1330.439,1068.237Z" transform="translate(-1296.627 -1056.169)" fill="#002869"/>
      <path id="Path_5112" data-name="Path 5112" d="M1381.743,1064.824a1.012,1.012,0,0,0,.405-.225.7.7,0,0,0,.235-.647c-.056-.3-.319-.461-.574-.617a2.175,2.175,0,0,1-.357-.251,3.579,3.579,0,0,1-.627-1,.133.133,0,0,0-.247.1,3.779,3.779,0,0,0,.69,1.095,2.361,2.361,0,0,0,.4.286c.224.136.417.255.451.438a.443.443,0,0,1-.154.4.732.732,0,0,1-.65.174.133.133,0,1,0-.07.258A.933.933,0,0,0,1381.743,1064.824Z" transform="translate(-1344.822 -1051.104)" fill="#ed715d"/>
      <path id="Path_5113" data-name="Path 5113" d="M1379.868,1113.685a2.751,2.751,0,0,1-1.122-.05.148.148,0,0,1,.083-.283h0a2.338,2.338,0,0,0,2.1-.5.148.148,0,1,1,.2.215A2.369,2.369,0,0,1,1379.868,1113.685Z" transform="translate(-1343.02 -1098.556)" fill="#ed715d"/>
      <path id="Path_5114" data-name="Path 5114" d="M1108.041,919.643s-9.328-5.329-13,5.1c-1.172,3.326-5.941,3.88-3.2,9.949.928,2.055.7,2.955.37,4.852-.593,3.371,1.326,5.7,4.808,5.248,2.731-.352,2.826,3.136,6.159,1.846,2.713-1.051,2.031-4.255,4.21-5.465,4.816-2.673-.969-7.238-2.24-9.626-.092-.173-.193-.346-.293-.524h0a3.665,3.665,0,0,1-.374-1.805c-.006-3.539,5.279-3.735,3.329-7.566Z" transform="translate(-1074.386 -916.885)" fill="#012869"/>
      <path id="Path_5115" data-name="Path 5115" d="M1156.186,1470.417a.17.17,0,0,1-.128-.281,9.374,9.374,0,0,1,.664-.672c.945-.891,1.922-1.813,2.921-6.216a8.136,8.136,0,0,1,1.562-3.158,9.977,9.977,0,0,0,2.022-4.654.17.17,0,1,1,.334.058,10.39,10.39,0,0,1-2.079,4.793,7.855,7.855,0,0,0-1.507,3.037c-1.021,4.5-2.037,5.462-3.019,6.388a8.931,8.931,0,0,0-.641.648A.17.17,0,0,1,1156.186,1470.417Z" transform="translate(-1135.108 -1418.41)" fill="#002869"/>
    </g>
  </g>
</svg>
