<svg xmlns="http://www.w3.org/2000/svg" width="161.5" height="115.404" viewBox="0 0 161.5 115.404">
  <g id="Group_1684" data-name="Group 1684" transform="translate(-320.692 -314.586)">
    <g id="Group_1669" data-name="Group 1669" transform="translate(389.652 314.586)">
      <g id="Group_1665" data-name="Group 1665" transform="translate(0 63.997)">
        <path id="Path_5002" data-name="Path 5002" d="M2049.1,1564.842a23.4,23.4,0,0,0-8.175,5.965s5.5,2.225,9.926,1.973c4.584-.261,6.794-3.362,6.311-5.554S2053.391,1563.2,2049.1,1564.842Z" transform="translate(-1992.099 -1542.645)" fill="#2f2c41"/>
        <path id="Path_5003" data-name="Path 5003" d="M2120.133,1613.458s0-.007,0-.01a.106.106,0,0,0-.114-.1,39.274,39.274,0,0,0-8.367,1.7.106.106,0,0,0,.069.2,39.031,39.031,0,0,1,8.314-1.685A.106.106,0,0,0,2120.133,1613.458Z" transform="translate(-2057.913 -1588.417)" fill="#d9c3b8"/>
        <path id="Path_5004" data-name="Path 5004" d="M1468.9,1778.878a23.4,23.4,0,0,0-10.041,1.256s3.731,4.611,7.725,6.536c4.136,1.993,7.573.352,8.212-1.8S1473.449,1779.524,1468.9,1778.878Z" transform="translate(-1449.889 -1742.472)" fill="#2f2c41"/>
        <path id="Path_5005" data-name="Path 5005" d="M1538.926,1817.109l0-.009a.106.106,0,0,0-.052-.141,39.262,39.262,0,0,0-8.141-2.572.106.106,0,0,0-.038.21,39.026,39.026,0,0,1,8.089,2.556A.106.106,0,0,0,1538.926,1817.109Z" transform="translate(-1516.727 -1775.688)" fill="#d9c3b8"/>
        <path id="Path_5006" data-name="Path 5006" d="M1388.458,1251.288c-3.094.22-4.926,1.372-5.937,3.735-.963,2.25-1.076,5.331-1.195,8.593-.15,4.106-.3,8.352-2.113,11.89-2.108,4.125-6.076,6.427-12.131,7.04-12.778,1.29-36.687-1.734-37.2,18.092h-2.068c.023-4.141,2.262-12.375,10.487-15.965,7.065-3.085,23.781-3.7,28.573-4.179,5.376-.544,8.713-2.426,10.5-5.926,1.6-3.131,1.747-7.145,1.888-11.026.126-3.458.245-6.726,1.359-9.329,1.318-3.077,3.832-4.707,7.688-4.981Z" transform="translate(-1327.815 -1249.23)" fill="#2f2c41"/>
        <path id="Path_5007" data-name="Path 5007" d="M2100.567,1313.33a13.493,13.493,0,0,0-5,3.017,16.079,16.079,0,0,0,5.6,1.632c2.647.08,4.072-1.591,3.9-2.874S2103.114,1312.6,2100.567,1313.33Z" transform="translate(-2043.002 -1308.738)" fill="#2f2c41"/>
        <path id="Path_5008" data-name="Path 5008" d="M1981.269,1317.415a13.492,13.492,0,0,0,5.428-2.143,16.079,16.079,0,0,0-5.253-2.542c-2.6-.52-4.28.89-4.328,2.184S1978.637,1317.706,1981.269,1317.415Z" transform="translate(-1932.655 -1308.279)" fill="#2f2c41"/>
        <path id="Path_5009" data-name="Path 5009" d="M1783.888,1531.337a23.4,23.4,0,0,0-1.067,10.063s5.341-2.581,8.126-6.031c2.884-3.573,2.07-7.293.121-8.406S1785.554,1527.058,1783.888,1531.337Z" transform="translate(-1751.531 -1507.582)" fill="#2f2c41"/>
        <path id="Path_5010" data-name="Path 5010" d="M1824.076,1565.558a.1.1,0,0,0,.009-.02,26.239,26.239,0,0,1,4.077-7.622.106.106,0,0,0-.163-.136,26.483,26.483,0,0,0-4.116,7.69.106.106,0,0,0,.193.088Z" transform="translate(-1789.911 -1536.617)" fill="#d9c3b8"/>
      </g>
      <g id="Group_1666" data-name="Group 1666" transform="translate(15.466 22.511)">
        <path id="Path_5011" data-name="Path 5011" d="M2140.939,755.513c-11.486,8.734-26.412,15.364-28.844,13.533s2.073-22.627,12.286-32.293c4.425-4.188,5.69-6.6,8.56-6.583,5.819.034,6.441,4.536,10.247,6.754S2155.619,744.35,2140.939,755.513Z" transform="translate(-2073.257 -724.225)" fill="#2f2c41"/>
        <path id="Path_5012" data-name="Path 5012" d="M1974.524,655.125c-2.036,10.812,5.008,26.612,7.743,27.1s13.765-12.109,16.676-22.724.28-14.3-12.02-14.175C1981.393,645.383,1977.982,636.757,1974.524,655.125Z" transform="translate(-1945.369 -643.352)" fill="#2f2c41"/>
        <path id="Path_5013" data-name="Path 5013" d="M1731.8,716.332c6.251,9.054,20.677,15.221,22.989,13.68s2.342-17.361-3.689-26.569c-5.734-8.754-8.994-1.269-17.849-.317C1727.751,703.717,1723.291,704.008,1731.8,716.332Z" transform="translate(-1715.18 -695.414)" fill="#2f2c41"/>
        <path id="Path_5014" data-name="Path 5014" d="M1555.651,873.2c6.5,12.882,30.332,17.147,32.812,15.381s1.917-17.628-11.859-20.448c-8.73-1.787-12.1-15.779-17.46-7.395C1555.661,866.183,1550.972,863.926,1555.651,873.2Z" transform="translate(-1553.684 -843.376)" fill="#2f2c41"/>
      </g>
      <g id="Group_1667" data-name="Group 1667" transform="translate(14.764 0)">
        <path id="Path_5015" data-name="Path 5015" d="M1734.092,1002a23.224,23.224,0,0,0-1.218,3.777,4.925,4.925,0,0,1-.611,1.247c-1.121.744-3.6,2.263-4,2.5a8.471,8.471,0,0,0-1.333,1.031s-.929,2.042,2.618,1.649a33.378,33.378,0,0,0,5.54-1.087c1.04-.376.444-1.619.487-2.586.019-.43,1.486-4.167,1.586-4.419C1737.165,1004.107,1736.994,1000.587,1734.092,1002Z" transform="translate(-1714.267 -954.619)" fill="#fdb98d"/>
        <path id="Path_5016" data-name="Path 5016" d="M1702.143,1102.9c-2.238,1.161-3.773,2-3.353,3.286.473,1.45,3.456,1.194,5.064.5a20.288,20.288,0,0,1,2.411-1c1.035-.3,2.4-.571,3.1-.809.979-.329.726-1.7.014-2.924a1.369,1.369,0,0,1-.784.933,30.663,30.663,0,0,1-5.234,1.878c-.846.2-1.555.045-1.789-.477A1.268,1.268,0,0,1,1702.143,1102.9Z" transform="translate(-1688.087 -1048.035)" fill="#002869"/>
        <path id="Path_5017" data-name="Path 5017" d="M1837.148,1050.839c.215-1.23.471-2.588.527-2.731,0,0-.171-3.521-3.073-2.107a21.985,21.985,0,0,0-1.218,3.282c.152.739.2,1.628.019,1.773-.749.619-5.462,3.023-5.509,3.047l.094.184c-.945.835-2.08,2.373,2.074,1.913a33.389,33.389,0,0,0,5.541-1.088,1.874,1.874,0,0,0,1.2-1.8l.134.01Z" transform="translate(-1807.673 -995.608)" fill="#fdb98d"/>
        <path id="Path_5018" data-name="Path 5018" d="M1804.181,1151.871c-2.322.9-3.652,1.655-3.232,2.944.473,1.45,3.963,1.386,5.571.688a23.98,23.98,0,0,1,2.556-.935c1.036-.3,2.461-.547,3.166-.784.979-.33.78-1.622.3-2.768-.1.4-.754.715-1.2.927a18.891,18.891,0,0,1-5.234,1.878c-1.087.041-2.055.009-2.265-.525A1.161,1.161,0,0,1,1804.181,1151.871Z" transform="translate(-1783.245 -1093.744)" fill="#002869"/>
        <path id="Path_5019" data-name="Path 5019" d="M1543.435,778.355c-.02.172.331.3.8.384a.037.037,0,0,1,0,.073c-.336.029-.576.107-.577.273,0,.207.415.336.94.414a.049.049,0,0,1,.016.092.237.237,0,0,0-.132.186c-.037.395,2.5.474,2.856.418,1.125-.174,3.77-1.286,5.482-1.7.993-.238.163-2.422-.616-2.533-.479-.069-.89-.137-2.123-.274-1.1-.123-1.775.01-2.944-.068-1.027-.068-1.643.068-1.575.411s1.521.346,2.465.616c-.124.254-.968.5-1.565.609-.715.132-2.669.024-2.79.483-.049.185.153.24.417.281a.023.023,0,0,1,0,.046C1543.726,778.084,1543.458,778.157,1543.435,778.355Zm2.878.557h0Z" transform="translate(-1543.434 -744.039)" fill="#a85948"/>
        <path id="Path_5020" data-name="Path 5020" d="M1929.9,332.421c-1.487,2.838-19.5,7.284-17-1.274.835-2.861-3.388-1.809.16-7.79,1.278-2.155-1.317-6.573,4.775-7.407,2.231-.305,5.6-4.2,7.137,2.747C1925.589,321.469,1929.9,332.421,1929.9,332.421Z" transform="translate(-1886.412 -314.586)" fill="#2f2c41"/>
        <path id="Path_5021" data-name="Path 5021" d="M1877.548,553.443c1.381,12.59,12.23,16.641,21.105,14.739a16.8,16.8,0,0,0,11.765-9.025c2.3-.854-.84-5.307-1.713-8.319-2.836-9.78-8.045-18.555-18.865-15.122C1883.351,537.775,1876.63,545.065,1877.548,553.443Z" transform="translate(-1854.592 -519.868)" fill="#d9c3b8"/>
        <path id="Path_5022" data-name="Path 5022" d="M1682.755,541.788c-3.155-5.211-11.481,3.841-25.312,1.1-.764-.417-.592-3.4-.016-3.724,3.988-1.137,7.2-5.061,10.616-5.826,7-1.57,8.02-8.639,17.531-11.4Z" transform="translate(-1649.159 -507.746)" fill="#d9c3b8"/>
        <path id="Path_5023" data-name="Path 5023" d="M2058.644,472.93l1.9,4.2c.423,1.266-5.946,3.439-6.457,2.08l-.469-2.015Z" transform="translate(-2018.688 -462.088)" fill="#a85948"/>
        <path id="Path_5024" data-name="Path 5024" d="M2196.236,540.235c2.905,3.872,5.272,5.83,8.672,9.621,3.706,4.134,7.956,4.55,11.681,7,1.047.42,3.255-2.747,2.753-3.107-3.515-2.848-4.211-7.84-8.034-11.086-4.984-4.231-2.616-8.451-12.237-13.121Z" transform="translate(-2151.537 -514.826)" fill="#d9c3b8"/>
        <path id="Path_5025" data-name="Path 5025" d="M2009.789,381.082c.126,4.186-2.936,5.368-5.272,5.089-1.621-.194-2.446-2.191-2.762-3.166l0-.012a4.078,4.078,0,0,1-.2-1.941c.017-.146.038-.294.056-.447.028-.246.031-.509.038-.809a2.8,2.8,0,0,1,.427-1.647c.986-1.5,2.393-.483,3.786-2.921C2006.755,373.658,2009.707,378.348,2009.789,381.082Z" transform="translate(-1970.145 -370.784)" fill="#a85948"/>
        <path id="Path_5026" data-name="Path 5026" d="M2073.173,467.146a.983.983,0,0,0,1.276,1.149.9.9,0,0,0,.542-.462.983.983,0,0,0-.966-1.438A.964.964,0,0,0,2073.173,467.146Z" transform="translate(-2036.877 -455.996)" fill="#88361e"/>
        <path id="Path_5027" data-name="Path 5027" d="M2002.565,465.591a.978.978,0,0,1-.814.888,4.078,4.078,0,0,1-.2-1.941,1.047,1.047,0,0,1,.118,0A.978.978,0,0,1,2002.565,465.591Z" transform="translate(-1970.145 -454.27)" fill="#88361e"/>
        <path id="Path_5028" data-name="Path 5028" d="M2055.857,515.966a.1.1,0,0,1,0-.193c.027,0,2.662-.08,3.866-1.693a.1.1,0,1,1,.154.115C2058.612,515.885,2055.969,515.964,2055.857,515.966Z" transform="translate(-2020.679 -500.385)" fill="#88361e"/>
        <path id="Path_5029" data-name="Path 5029" d="M2007.343,449.343a1.31,1.31,0,0,1-1.133-.431.109.109,0,0,1,.176-.128c.018.024.417.539,1.454.26a.109.109,0,0,1,.057.21A2.511,2.511,0,0,1,2007.343,449.343Z" transform="translate(-1974.503 -439.554)" fill="#2f2c41"/>
        <path id="Path_5030" data-name="Path 5030" d="M2059.274,453.224a1.743,1.743,0,0,1-.851-.233.109.109,0,0,1,.116-.184h0a1.561,1.561,0,0,0,1.684-.1.109.109,0,0,1,.123.18A1.824,1.824,0,0,1,2059.274,453.224Z" transform="translate(-2023.113 -443.23)" fill="#2f2c41"/>
        <path id="Path_5031" data-name="Path 5031" d="M2032.708,457.345a.826.826,0,0,1-.371-.07.572.572,0,0,1-.347-.441.826.826,0,0,1,.287-.624,1.762,1.762,0,0,0,.212-.286,2.917,2.917,0,0,0,.229-.937.109.109,0,0,1,.217.016,3.084,3.084,0,0,1-.255,1.024,1.926,1.926,0,0,1-.238.324c-.138.163-.257.3-.237.454a.361.361,0,0,0,.222.273.6.6,0,0,0,.548-.031.109.109,0,0,1,.12.182A.761.761,0,0,1,2032.708,457.345Z" transform="translate(-1998.532 -445.279)" fill="#88361e"/>
        <path id="Path_5032" data-name="Path 5032" d="M2032.156,499.064a2.243,2.243,0,0,0,.856-.325.12.12,0,0,0-.137-.2h0a1.906,1.906,0,0,1-1.758.147.12.12,0,1,0-.1.218A1.931,1.931,0,0,0,2032.156,499.064Z" transform="translate(-1997.565 -485.926)" fill="#88361e"/>
        <path id="Path_5033" data-name="Path 5033" d="M2038.617,317.73s5.862-6.508,11.372.629c1.757,2.276,4.327,2.072,5.019,6.886.261,1.82.21,2.468.953,3.851,1.32,2.458.427,4.749-2.383,5.291-2.2.425-1.387,3.15-4.3,3-2.369-.121-2.659-2.776-4.655-3.157-4.411-.84-1.1-5.852-.724-8.025.027-.158.061-.317.093-.48h0a2.987,2.987,0,0,0-.171-1.493c-.9-2.742-5.041-1.544-4.509-5.008Z" transform="translate(-2004.711 -314.987)" fill="#2f2c41"/>
        <path id="Path_5034" data-name="Path 5034" d="M2246.088,739.891a.136.136,0,0,0,.027-.246,7.444,7.444,0,0,0-.675-.345c-.944-.442-1.92-.9-3.787-4a6.526,6.526,0,0,0-1.984-2.015,8,8,0,0,1-2.71-3.039.136.136,0,1,0-.24.128,8.336,8.336,0,0,0,2.789,3.13,6.308,6.308,0,0,1,1.912,1.935c1.91,3.175,2.924,3.65,3.906,4.109a7.151,7.151,0,0,1,.651.333A.136.136,0,0,0,2246.088,739.891Z" transform="translate(-2189.233 -701.715)" fill="#2f2c41"/>
        <path id="Path_5035" data-name="Path 5035" d="M1955.314,732.295s-10.67,2.643-15.564-12.873c-1.973-6.255-5.846-1.234-4.988,9.859a33.6,33.6,0,0,0,4.062,12.563C1942.184,747.812,1954.823,749.848,1955.314,732.295Z" transform="translate(-1907.854 -689.162)" fill="#012869"/>
        <path id="Path_5036" data-name="Path 5036" d="M1805.365,712.949s21.736-22.351,9.966-27.358c-10.4-4.425-14.5,25.737-14.5,25.737C1800.719,712.214,1805.088,713.378,1805.365,712.949Z" transform="translate(-1783.203 -659.775)" fill="#ed715d"/>
        <path id="Path_5037" data-name="Path 5037" d="M2079.514,689.186c-7,.444-10.343-11.8-18.232-14.606-.117-.042-2.02-1.609-2.03,12.069,0,1.25-1.916,16.007,5.068,19.03C2073.925,709.836,2080.513,703.283,2079.514,689.186Z" transform="translate(-2023.708 -649.861)" fill="#ed715d"/>
        <path id="Path_5038" data-name="Path 5038" d="M1916.966,702.372s17.414-30.021,6.548-31.615c-11.286-1.656-11.269,30.085-11.269,30.085C1912.037,702.072,1916.379,702.854,1916.966,702.372Z" transform="translate(-1886.984 -646.311)" fill="#ed715d"/>
        <path id="Path_5039" data-name="Path 5039" d="M1922.747,728.227h-.009a.13.13,0,0,1-.129-.131c.081-12.749,4.76-20.37,4.807-20.443a.13.13,0,1,1,.219.141c-.047.073-4.685,7.629-4.765,20.3A.13.13,0,0,1,1922.747,728.227Z" transform="translate(-1896.646 -680.684)" fill="#2f2c41"/>
        <path id="Path_5040" data-name="Path 5040" d="M2007.046,813.57a.13.13,0,0,1-.1-.214c4.546-5.421,5.827-11.071,6.958-16.056.15-.663.292-1.289.441-1.909a.13.13,0,1,1,.253.061c-.148.618-.29,1.244-.44,1.906-1.137,5.014-2.426,10.7-7.012,16.166A.13.13,0,0,1,2007.046,813.57Z" transform="translate(-1975.181 -762.376)" fill="#2f2c41"/>
      </g>
      <g id="Group_1668" data-name="Group 1668" transform="translate(15.812 40.585)">
        <path id="Path_5041" data-name="Path 5041" d="M1915.588,958.086c2.476,11.541,9.682,14.806,12.662,14.845s10.446-8.282,13.114-19.786c2.191-9.449-9.175-5.546-12.3-5.121C1923.916,948.725,1911.423,938.669,1915.588,958.086Z" transform="translate(-1890.375 -943.385)" fill="#d9c3b8"/>
        <path id="Path_5042" data-name="Path 5042" d="M1563.088,961.729c8.042,7.413,21.323,12.018,29.758,12.805l.467.041a19.747,19.747,0,0,0,4.691-.08c2.515-.437-9.936-2.883-14.167-17.671-1.837-6.421-8.693-11.427-13.552-7.773C1565.949,952.312,1551.619,951.157,1563.088,961.729Z" transform="translate(-1558.735 -945.042)" fill="#d9c3b8"/>
        <path id="Path_5043" data-name="Path 5043" d="M2063.531,936.862a34.669,34.669,0,0,0,5.4-.13c.148-.014.3-.023.444-.046,7.748-1.238,18.432-3.613,27.6-11.387,9.579-8.119,11.944-21.1,1.84-17.317-13.14,4.924-12.842-5.718-18.958,8.542q-.262.612-.555,1.21-.283.576-.591,1.141C2072.99,929.37,2060.96,936.714,2063.531,936.862Z" transform="translate(-2028.635 -907.306)" fill="#d9c3b8"/>
        <path id="Path_5044" data-name="Path 5044" d="M1921.146,1092.94c.009.148.03.324.063.525a40.12,40.12,0,0,0,4.01,10.495c1.394,2.577,3.311,5.465,5.532,7.05l.467.041c-2.495-1.615-4.6-4.944-5.813-7.192a42.836,42.836,0,0,1-3.849-9.722v0a8.109,8.109,0,0,1-.2-1.208.108.108,0,0,0-.112-.1A.106.106,0,0,0,1921.146,1092.94Z" transform="translate(-1896.33 -1080.125)" fill="#2f2c41"/>
        <path id="Path_5045" data-name="Path 5045" d="M2147.249,1099.607c.148-.014.3-.029.444-.046,2.1-1.654,4.244-4.866,6.4-9.607,1.273-2.806,2.3-5.618,2.976-7.636a.108.108,0,1,0-.2-.085c-.678,2.014-1.7,4.827-2.975,7.634C2151.678,1094.749,2149.423,1098.042,2147.249,1099.607Z" transform="translate(-2106.952 -1070.181)" fill="#2f2c41"/>
      </g>
      <path id="Path_5046" data-name="Path 5046" d="M2516.3,895.609c0,.7-3.311-.5-5.072.4.482.47,2.313.807,2.228,1.6-.031.28-.922-.041-1.848-.1a10.468,10.468,0,0,1-2.627-.072,4.57,4.57,0,0,1-2-1.363,6.092,6.092,0,0,0,1.735-2.117c.824.58,2.346.128,3.535.189C2513.468,894.2,2516.3,894.9,2516.3,895.609Z" transform="translate(-2426.24 -854.281)" fill="#a85948"/>
    </g>
    <g id="Group_1683" data-name="Group 1683" transform="translate(320.692 327.018)">
      <g id="Group_1670" data-name="Group 1670" transform="translate(29.168 54.017)">
        <path id="Path_5047" data-name="Path 5047" d="M874.948,1735.2a23.071,23.071,0,0,1,9.916,1.1s-3.617,4.6-7.529,6.548c-4.051,2.021-7.461.449-8.12-1.664S870.475,1735.9,874.948,1735.2Z" transform="translate(-860.706 -1704.213)" fill="#2f2c41"/>
        <path id="Path_5048" data-name="Path 5048" d="M909.581,1772.448l0-.009a.105.105,0,0,1,.05-.14,38.725,38.725,0,0,1,7.991-2.645.1.1,0,1,1,.04.206,38.463,38.463,0,0,0-7.941,2.629A.105.105,0,0,1,909.581,1772.448Z" transform="translate(-898.412 -1736.469)" fill="#d9c3b8"/>
        <path id="Path_5049" data-name="Path 5049" d="M803.869,1333.986h-2.026c-.907-13.107-13.77-14.889-25.841-16.108-5.97-.6-9.883-2.874-11.961-6.94-1.783-3.489-1.935-7.675-2.083-11.723-.117-3.216-.228-6.254-1.178-8.472-1-2.33-2.8-3.466-5.854-3.683l.144-2.029c3.8.271,6.281,1.877,7.58,4.911,1.1,2.567,1.217,5.789,1.341,9.2.14,3.826.284,7.783,1.862,10.871,1.764,3.451,5.054,5.307,10.354,5.843,4.725.477,11.866,1.2,17.61,3.947a18.174,18.174,0,0,1,7.261,5.9A16.365,16.365,0,0,1,803.869,1333.986Z" transform="translate(-754.36 -1285.03)" fill="#2f2c41"/>
        <path id="Path_5050" data-name="Path 5050" d="M750.73,1396.464a13.3,13.3,0,0,1,5.389,2.017,15.854,15.854,0,0,1-5.134,2.6c-2.55.558-4.235-.8-4.306-2.077S748.13,1396.224,750.73,1396.464Z" transform="translate(-746.677 -1388.81)" fill="#2f2c41"/>
        <path id="Path_5051" data-name="Path 5051" d="M864.209,1399.581a13.306,13.306,0,0,1-5.352-2.113,15.859,15.859,0,0,1,5.18-2.506c2.56-.512,4.22.878,4.268,2.154S866.8,1399.868,864.209,1399.581Z" transform="translate(-851.176 -1387.333)" fill="#2f2c41"/>
        <path id="Path_5052" data-name="Path 5052" d="M1167.026,1593.788a23.07,23.07,0,0,1,1.052,9.922s-5.266-2.545-8.012-5.947c-2.844-3.522-2.041-7.191-.119-8.289S1165.383,1589.569,1167.026,1593.788Z" transform="translate(-1130.031 -1568.27)" fill="#2f2c41"/>
        <path id="Path_5053" data-name="Path 5053" d="M1205.769,1627.529a.112.112,0,0,1-.009-.019,25.871,25.871,0,0,0-4.02-7.515.1.1,0,0,1,.161-.135,26.119,26.119,0,0,1,4.058,7.582.105.105,0,0,1-.19.087Z" transform="translate(-1170.557 -1596.898)" fill="#d9c3b8"/>
      </g>
      <g id="Group_1671" data-name="Group 1671" transform="translate(1.208 14.914)">
        <path id="Path_5054" data-name="Path 5054" d="M346.591,844.567c9.912,10.206,27.136,17.568,29.535,15.763s-4.573-22.731-14.643-32.261c-4.363-4.129-6.511-7.316-9.332-7.535-4.362-.339-3.9,3.705-7.649,5.892S331.7,829.233,346.591,844.567Z" transform="translate(-338.334 -813.218)" fill="#ed715d"/>
        <path id="Path_5055" data-name="Path 5055" d="M632.731,725.572c2.007,10.66-4.938,26.239-7.635,26.722s-15.969-15.549-18.839-26.015,2.122-10.487,14.249-10.367C625.958,715.966,629.321,707.462,632.731,725.572Z" transform="translate(-587.175 -713.964)" fill="#ed715d"/>
        <path id="Path_5056" data-name="Path 5056" d="M858.782,741.718c-5.87,9.122-19.241,13.044-21.521,11.525s-1.326-14.793,3.855-24.329,7.121-12.12,15.817-6.368C861.482,725.554,871.156,722.49,858.782,741.718Z" transform="translate(-802.014 -719.13)" fill="#ed715d"/>
        <path id="Path_5057" data-name="Path 5057" d="M890.593,856.836c-11.211,8.759-29.69,16.534-32.135,14.793S871.6,863.348,874,849.693c3.249-18.5,16.8-19.9,17.9-13.91C893.057,842.052,908.951,842.492,890.593,856.836Z" transform="translate(-822.603 -824.492)" fill="#ed715d"/>
      </g>
      <g id="Group_1679" data-name="Group 1679" transform="translate(18.524)">
        <path id="Path_5058" data-name="Path 5058" d="M1302.616,821.149c1.47.417,2.832-.975,4.3-1.566,1.132-.456,3.993-1.017,4.293-.373s-3.214.939-4.435,2.494c.636.224,2.438-.241,2.693.51.09.266-.853.35-1.717.689a13.279,13.279,0,0,1-2.413,1.041,8.1,8.1,0,0,1-3.263-.085Z" transform="translate(-1253.4 -796.818)" fill="#fdb88e"/>
        <path id="Path_5059" data-name="Path 5059" d="M853.126,513.762c1.435,2.818,17.817,10.693,15.973,2.087-1.027-4.793,2.4-5.393-.274-10.545-1.138-2.2.548-6.436-3.6-7.657-2.132-.628-5.482-4.213-7.077,2.627C857.513,503,853.126,513.762,853.126,513.762Z" transform="translate(-835.193 -496.15)" fill="#2f2c41"/>
        <g id="Group_1672" data-name="Group 1672" transform="translate(2.839 14.403)">
          <path id="Path_5060" data-name="Path 5060" d="M658.165,734.768c-2.848,12.379-5.851,16.085-14.47,13.152s-10.624-13.387-10.715-13.447c-1.678-1.119,4.069-8.544,5.035-9.918,5.878-8.352,13.834-9.959,18.106-6.866C661.652,721.694,660.06,726.53,658.165,734.768Z" transform="translate(-632.675 -715.563)" fill="#f7f2f0"/>
          <path id="Path_5061" data-name="Path 5061" d="M938.631,721.42c3.726,2.019,8.384,5.59,16.148,2.174a41.651,41.651,0,0,0,6.381-3.408c.758-.433.634-3.606.051-3.916-6.2-.128-10.7-.516-12.953-1.914-3.32-2.061-6.288-6.909-13.488-7.858Z" transform="translate(-914.085 -706.498)" fill="#f7f2f0"/>
        </g>
        <g id="Group_1673" data-name="Group 1673" transform="translate(0 28.418)">
          <path id="Path_5062" data-name="Path 5062" d="M916.934,982.048s4.265-29.07,15.356-22.431c7.971,4.772-10.539,23.818-10.539,23.818C921.1,984.5,917.061,982.8,916.934,982.048Z" transform="translate(-894.632 -955.382)" fill="#2f2c41"/>
          <path id="Path_5063" data-name="Path 5063" d="M594.364,916.068c2.645,1.271,6.459,2.441,9.511.56,6.969-4.3,18.106-7.782,22.073-3.509,2.3,2.478,2.8,7.527-8.029,16.111-.983.779-5.615,2.45-13.216,3.144C591.109,933.615,588.057,921.1,594.364,916.068Z" transform="translate(-591.22 -911.172)" fill="#2f2c41"/>
          <path id="Path_5064" data-name="Path 5064" d="M864.939,945.652s4.265-29.07,15.356-22.431c7.971,4.772-10.539,23.818-10.539,23.818C869.1,948.106,865.066,946.4,864.939,945.652Z" transform="translate(-846.197 -921.478)" fill="#2f2c41"/>
        </g>
        <path id="Path_5065" data-name="Path 5065" d="M1053.215,976.2a.127.127,0,0,1-.093-.214c2.858-3.039,3.8-5.457,4.1-6.95a4.821,4.821,0,0,0-.051-2.527.127.127,0,0,1,.235-.1,4.934,4.934,0,0,1,.071,2.648c-.293,1.531-1.254,4-4.165,7.1A.126.126,0,0,1,1053.215,976.2Z" transform="translate(-1021.463 -934.142)" fill="#d9c3b8"/>
        <path id="Path_5066" data-name="Path 5066" d="M924.51,1072.55c.61,0,1.577-.2,1.475-.61-.1-.382-1.271.1-2.492-.153-.559-.116-1.387-.361-1.41-.542.082-.551,2.122-.526,2.18-.937.041-.29-.3-.433-1.33-.453-.81-.015-1.323-.13-2.136-.1-.305.011-.812.108-1.42.131a5.971,5.971,0,0,1-1.357-.228l-.45,2.279c.368.3,3.783,2.51,5.286,2.587,1.689.086,3.077-.394,3.027-.751-.023-.16-.7-.026-.966,0,.407,0,1.475-.254,1.475-.61,0-.254-.865-.2-1.66.045.744-.18,1.762-.249,1.825-.606C926.633,1072.164,925.267,1072.44,924.51,1072.55Z" transform="translate(-895.224 -1030.387)" fill="#fdb98d"/>
        <path id="Path_5067" data-name="Path 5067" d="M691.551,728.972c-4.276-2.737-9.615-2.441-13.193-6.13a10.332,10.332,0,0,1-2.725-6.29c-.016-.144-.026-.292-.036-.44-.394-6.461,3.821-14.908,12.99-15.3l1.563,7.728c1.5,2.941-2.958,6.145-1.543,7.849,2.817,3.394,1.8,5.18,2.38,7.078a3.581,3.581,0,0,0,.161.44c.233.525,1.457,1.247,2.124,1.815C693.963,726.313,692.227,729.405,691.551,728.972Z" transform="translate(-669.796 -686.8)" fill="#f7f2f0"/>
        <g id="Group_1677" data-name="Group 1677" transform="translate(9.761 0.085)">
          <g id="Group_1674" data-name="Group 1674" transform="translate(9.656 4.089)">
            <path id="Path_5068" data-name="Path 5068" d="M877.233,649.385l-2.35,3.9c-.974,2.122,6.09,4.14,6.4,2.821l.381-1.959Z" transform="translate(-874.791 -643.066)" fill="#fdb88e"/>
            <path id="Path_5069" data-name="Path 5069" d="M909.778,563.152c-.175,4.13,2.834,5.333,5.143,5.085,1.6-.172,2.441-2.133,2.763-3.092l0-.012a4.025,4.025,0,0,0,.222-1.914c-.015-.144-.034-.29-.05-.442-.025-.243-.024-.5-.028-.8a2.769,2.769,0,0,0-.4-1.631c-.955-1.494-2.356-.5-3.7-2.928C912.862,555.86,909.892,560.454,909.778,563.152Z" transform="translate(-907.376 -557.105)" fill="#fdb88e"/>
          </g>
          <path id="Path_5070" data-name="Path 5070" d="M918.147,696.6a.1.1,0,0,0,.007-.19c-.026,0-2.626-.11-3.8-1.717a.1.1,0,1,0-.154.112C915.429,696.49,918.037,696.6,918.147,696.6Z" transform="translate(-901.833 -681.15)" fill="#ed715d"/>
          <g id="Group_1675" data-name="Group 1675" transform="translate(14.299 9.13)">
            <path id="Path_5071" data-name="Path 5071" d="M999.561,631.317a1.293,1.293,0,0,0,1.124-.412.107.107,0,0,0-.172-.128c-.018.024-.418.527-1.439.239a.107.107,0,0,0-.058.207A2.483,2.483,0,0,0,999.561,631.317Z" transform="translate(-995.08 -630.734)" fill="#002869"/>
            <path id="Path_5072" data-name="Path 5072" d="M943.7,634.395a1.723,1.723,0,0,0,.843-.22.107.107,0,0,0-.113-.183h0a1.541,1.541,0,0,1-1.661-.121.107.107,0,1,0-.123.176A1.8,1.8,0,0,0,943.7,634.395Z" transform="translate(-942.605 -633.639)" fill="#002869"/>
          </g>
          <g id="Group_1676" data-name="Group 1676" transform="translate(13.446 9.516)">
            <path id="Path_5073" data-name="Path 5073" d="M982.594,638.795a.813.813,0,0,0,.367-.065.564.564,0,0,0,.348-.431.815.815,0,0,0-.276-.62,1.74,1.74,0,0,1-.206-.285,2.884,2.884,0,0,1-.215-.927.107.107,0,0,0-.214.013,3.043,3.043,0,0,0,.239,1.014,1.9,1.9,0,0,0,.231.322c.134.162.251.3.229.451a.356.356,0,0,1-.222.266.589.589,0,0,1-.54-.037.107.107,0,0,0-.12.178A.75.75,0,0,0,982.594,638.795Z" transform="translate(-978.604 -636.366)" fill="#ed715d"/>
            <path id="Path_5074" data-name="Path 5074" d="M972.944,679.971a2.214,2.214,0,0,1-.869-.248.119.119,0,0,1,.118-.206h0a1.881,1.881,0,0,0,1.742,0,.119.119,0,1,1,.119.206A1.905,1.905,0,0,1,972.944,679.971Z" transform="translate(-969.148 -676.545)" fill="#ed715d"/>
            <path id="Path_5075" data-name="Path 5075" d="M1013.8,647.413a.965.965,0,0,0,.792.886,4.022,4.022,0,0,0,.222-1.913.982.982,0,0,0-.117,0A.965.965,0,0,0,1013.8,647.413Z" transform="translate(-1008.073 -645.698)" fill="#ed715d"/>
            <path id="Path_5076" data-name="Path 5076" d="M932.044,647.967a.97.97,0,0,1-1.273,1.119.89.89,0,0,1-.529-.463.97.97,0,0,1,.97-1.408A.952.952,0,0,1,932.044,647.967Z" transform="translate(-930.136 -646.466)" fill="#ed715d"/>
          </g>
          <path id="Path_5077" data-name="Path 5077" d="M751.583,500.14s-5.709-6.493-11.232.486c-1.761,2.226-5.536,1.4-5.035,6.738a5.278,5.278,0,0,1-.986,3.79,3.167,3.167,0,0,0,.033,3.663c2.26-2.191,4.656.137,9.038.616,4.406.482,3.209-4.839,2.866-6.988-.025-.156-.056-.314-.086-.475h0a2.949,2.949,0,0,1,.186-1.472c.92-2.7,4.994-1.464,4.51-4.89Z" transform="translate(-733.772 -497.393)" fill="#2f2c41"/>
        </g>
        <g id="Group_1678" data-name="Group 1678" transform="translate(5.636 24.108)">
          <path id="Path_5078" data-name="Path 5078" d="M675.537,907.857a.127.127,0,0,1-.106-.056c-1.882-2.8-1.9-7.4-1.9-7.446a.127.127,0,1,1,.254,0c0,.045.022,4.571,1.86,7.3a.127.127,0,0,1-.105.2Z" transform="translate(-673.528 -896.668)" fill="#012869"/>
          <path id="Path_5079" data-name="Path 5079" d="M858.956,855.353a.127.127,0,0,1-.114-.07,4.16,4.16,0,0,0-.536-.739,6.9,6.9,0,0,1-1.042-1.553,2.195,2.195,0,0,1,.272-2.032,4.019,4.019,0,0,0,.531-2.58.127.127,0,0,1,.251-.039,4.232,4.232,0,0,1-.554,2.73c-.318.654-.57,1.171-.271,1.813a6.6,6.6,0,0,0,1.007,1.5,4.326,4.326,0,0,1,.568.788.127.127,0,0,1-.114.184Z" transform="translate(-844.537 -848.232)" fill="#012869"/>
        </g>
      </g>
      <g id="Group_1682" data-name="Group 1682" transform="translate(0 33.127)">
        <g id="Group_1680" data-name="Group 1680">
          <path id="Path_5080" data-name="Path 5080" d="M694.9,1000.69c-2.7,11.321-9.546,14.6-12.485,14.637s-11.662-11.514-13.2-23.056c-1.375-10.35,7.074-6.875,12.576-2.159C685.689,993.445,699.048,983.289,694.9,1000.69Z" transform="translate(-645.22 -985.149)" fill="#d9c3b8"/>
          <path id="Path_5081" data-name="Path 5081" d="M873.516,1020.658c-7.505,7.744-21.024,11.85-29.34,12.626-.155.015-.31.028-.461.041a19.461,19.461,0,0,1-4.625-.078c-2.48-.431,8.728-6.478,14.151-16.6,0,0,0,0,0,0q.174-.327.342-.66c.318-.634.612-1.282.877-1.946,4.929-12.286,9.664-9.855,14.455-6.253C873.191,1011,892.759,1000.8,873.516,1020.658Z" transform="translate(-803.265 -1003.159)" fill="#d9c3b8"/>
          <path id="Path_5082" data-name="Path 5082" d="M360.83,1010.137a34.194,34.194,0,0,1-5.326-.128q-.219-.021-.438-.046c-9.526-1.046-16.06-1.887-24.4-8.589-10.058-8.085-13.446-23.308-5.8-21.233,13.353,3.624,13.831-4.117,19.861,9.942q.259.6.548,1.193.279.568.583,1.125C351.5,1002.749,363.364,1009.991,360.83,1010.137Z" transform="translate(-320.692 -979.95)" fill="#d9c3b8"/>
        </g>
        <g id="Group_1681" data-name="Group 1681" transform="translate(25.117 12.85)">
          <path id="Path_5083" data-name="Path 5083" d="M916.918,1178.255c-.009.146-.03.319-.062.518a39.563,39.563,0,0,1-3.954,10.347c-1.375,2.541-3.264,5.389-5.455,6.951l-.461.041c2.459-1.592,4.533-4.874,5.731-7.091a42.237,42.237,0,0,0,3.794-9.585s0,0,0,0a8,8,0,0,0,.2-1.19.106.106,0,0,1,.111-.1A.1.1,0,0,1,916.918,1178.255Z" transform="translate(-891.959 -1177.424)" fill="#2f2c41"/>
          <path id="Path_5084" data-name="Path 5084" d="M697.213,1184.828c-.146-.014-.292-.029-.438-.046-2.074-1.63-4.184-4.8-6.306-9.472-1.255-2.767-2.265-5.539-2.935-7.528a.106.106,0,1,1,.193-.083c.668,1.986,1.677,4.759,2.933,7.527C692.846,1180.038,695.07,1183.284,697.213,1184.828Z" transform="translate(-687.519 -1167.619)" fill="#2f2c41"/>
        </g>
      </g>
    </g>
  </g>
</svg>
